<svg width="248" height="186" viewBox="0 0 248 186" fill="none" xmlns="http://www.w3.org/2000/svg">
<g clip-path="url(#clip0)">
<path d="M195.909 119.35C166.699 119.35 143.817 114.074 143.817 107.338C143.817 103.299 151.925 99.6957 166.061 97.4519C166.112 97.4436 166.163 97.4454 166.213 97.4571C166.263 97.4688 166.31 97.4902 166.352 97.52C166.393 97.5499 166.428 97.5877 166.455 97.6311C166.482 97.6746 166.5 97.7229 166.508 97.7734C166.516 97.8238 166.514 97.8753 166.502 97.9249C166.49 97.9745 166.469 98.0213 166.438 98.0626C166.408 98.1038 166.37 98.1387 166.326 98.1653C166.283 98.1918 166.234 98.2095 166.183 98.2173C152.867 100.331 144.595 103.826 144.595 107.338C144.595 113.429 168.094 118.575 195.909 118.575C223.724 118.575 247.223 113.429 247.223 107.338C247.223 103.811 238.897 100.308 225.496 98.1953C225.394 98.179 225.303 98.1232 225.243 98.0401C225.183 97.9571 225.158 97.8535 225.174 97.7522C225.19 97.6508 225.246 97.56 225.329 97.4995C225.412 97.4391 225.516 97.414 225.617 97.4298C239.842 99.6721 248 103.283 248 107.338C248 114.074 225.119 119.35 195.909 119.35Z" fill="#CCCCCC"/>
<path d="M170.066 121.612C172.709 126.124 176.494 129.864 181.042 132.459C185.591 135.054 190.743 136.413 195.984 136.4C201.225 136.387 206.37 135.002 210.905 132.384C215.441 129.766 219.207 126.007 221.827 121.482C204.588 122.471 187.309 122.515 170.066 121.612Z" fill="#E6E6E6"/>
<path d="M224.692 113.198C225.966 108.745 226.182 104.057 225.325 99.5064C224.467 94.9556 222.559 90.6662 219.75 86.9777C216.942 83.2892 213.311 80.3029 209.145 78.2551C204.978 76.2074 200.391 75.1543 195.746 75.1793C191.101 75.2044 186.525 76.3068 182.381 78.3993C178.237 80.4919 174.639 83.5171 171.871 87.2356C169.102 90.9542 167.241 95.2639 166.432 99.8237C165.624 104.384 165.891 109.068 167.214 113.507C186.306 115.882 205.626 115.778 224.692 113.198Z" fill="#E6E6E6"/>
<path d="M46.4377 3.48752C46.4376 2.857 46.2659 2.23833 45.9411 1.69732C45.6162 1.15631 45.1503 0.713213 44.5929 0.415164C44.0355 0.117116 43.4075 -0.0247279 42.7757 0.00472275C42.1438 0.0341734 41.5318 0.233817 41.0047 0.582413C40.4777 0.93101 40.0553 1.41552 39.7825 1.98438C39.5097 2.55325 39.3967 3.18519 39.4556 3.81296C39.5144 4.44074 39.7429 5.04086 40.1168 5.54949C40.4906 6.05811 40.9957 6.4562 41.5785 6.7014V24.8H44.2997V6.7014C44.9336 6.43456 45.4744 5.98736 45.8547 5.41573C46.235 4.8441 46.4378 4.17341 46.4377 3.48752Z" fill="#CCCCCC"/>
<path d="M66.0703 90.2875H66.0692C65.0232 90.2864 63.9883 90.0752 63.0261 89.6664C62.0639 89.2576 61.1943 88.6598 60.4691 87.9085C59.7439 87.1572 59.178 86.2679 58.8053 85.2938C58.4327 84.3196 58.2608 83.2806 58.2999 82.2388C58.4558 78.1301 62.0245 74.7875 66.2553 74.7875H87.6145L105.19 67.0317C105.662 66.8244 106.196 66.8119 106.677 66.9969C107.158 67.182 107.545 67.5494 107.755 68.0188L112.476 78.6489C112.684 79.1188 112.696 79.6518 112.51 80.1309C112.325 80.61 111.956 80.9962 111.485 81.2047L94.1739 88.8439C92.4592 89.6031 90.6069 90.0048 88.7308 90.0243L66.0703 90.2875Z" fill="#CCCCCC"/>
<path d="M14.2955 131.108C14.1942 131.108 14.0931 131.099 13.9932 131.082L2.4981 129.127H2.4982C2.26818 129.088 2.04832 129.003 1.85159 128.878C1.65486 128.753 1.48523 128.59 1.35269 128.398C1.22014 128.207 1.12737 127.991 1.07982 127.763C1.03227 127.536 1.03092 127.301 1.07583 127.072L10.0734 81.3277C10.4122 79.3523 11.5244 77.592 13.1652 76.434C14.8061 75.2761 16.8412 74.8152 18.8229 75.153C20.8046 75.4907 22.5705 76.5993 23.7322 78.2349C24.8939 79.8705 25.3562 81.8991 25.0174 83.8745L16.0042 129.699C15.9287 130.095 15.7166 130.453 15.4047 130.71C15.0927 130.968 14.7004 131.108 14.2955 131.108Z" fill="#CCCCCC"/>
<path d="M8.14672 141.05C12.0112 141.05 15.1441 137.927 15.1441 134.075C15.1441 130.223 12.0112 127.1 8.14672 127.1C4.2822 127.1 1.14938 130.223 1.14938 134.075C1.14938 137.927 4.2822 141.05 8.14672 141.05Z" fill="#E6E6E6"/>
<path d="M42.0927 74.2749C56.4773 74.2749 68.1384 62.6511 68.1384 48.3124C68.1384 33.9737 56.4773 22.3499 42.0927 22.3499C27.7081 22.3499 16.0471 33.9737 16.0471 48.3124C16.0471 62.6511 27.7081 74.2749 42.0927 74.2749Z" fill="#E6E6E6"/>
<path d="M42.0927 74.2749C56.4773 74.2749 68.1384 62.6511 68.1384 48.3124C68.1384 33.9737 56.4773 22.3499 42.0927 22.3499C27.7081 22.3499 16.0471 33.9737 16.0471 48.3124C16.0471 62.6511 27.7081 74.2749 42.0927 74.2749Z" fill="#E6E6E6"/>
<path d="M42.0927 68.0749C53.0422 68.0749 61.9185 59.2269 61.9185 48.3124C61.9185 37.3978 53.0422 28.5499 42.0927 28.5499C31.1432 28.5499 22.2669 37.3978 22.2669 48.3124C22.2669 59.2269 31.1432 68.0749 42.0927 68.0749Z" fill="#6C63FF"/>
<path d="M44.4106 56.6084C43.1254 56.5728 41.526 56.5283 40.2938 55.6311C39.9269 55.353 39.6254 54.9983 39.4105 54.5918C39.1956 54.1853 39.0725 53.7368 39.0498 53.2779C39.0275 52.9518 39.0812 52.6249 39.2067 52.3229C39.3321 52.0208 39.5259 51.7518 39.773 51.5368C40.4166 50.9947 41.3563 50.8676 42.3691 51.1643L41.3198 43.5206L42.0901 43.4154L43.3237 52.4015L42.6804 52.1073C41.9347 51.7664 40.911 51.5929 40.2749 52.1287C40.1187 52.2688 39.997 52.4429 39.9193 52.6375C39.8416 52.8321 39.8099 53.0419 39.8268 53.2507C39.8456 53.5923 39.9381 53.9258 40.0978 54.2285C40.2576 54.5313 40.4808 54.7962 40.7525 55.0052C41.7114 55.7034 42.9863 55.7935 44.4322 55.8338L44.4106 56.6084Z" fill="#2F2E41"/>
<path d="M37.5105 44.1798H33.3231V44.9548H37.5105V44.1798Z" fill="#2F2E41"/>
<path d="M50.7277 44.1798H46.5403V44.9548H50.7277V44.1798Z" fill="#2F2E41"/>
<path opacity="0.2" d="M28.75 48.4375C28.7504 43.7152 30.4467 39.1491 33.532 35.5655C36.6172 31.982 40.8876 29.6179 45.5701 28.901C42.7408 28.4246 39.8415 28.566 37.0725 29.3157C34.3035 30.0653 31.7307 31.4052 29.5319 33.2428C27.3331 35.0804 25.5607 37.3719 24.3372 39.959C23.1136 42.5462 22.4681 45.3672 22.4452 48.2273C22.4223 51.0874 23.0226 53.9184 24.2045 56.5246C25.3865 59.1309 27.1219 61.4503 29.291 63.3227C31.4601 65.195 34.0111 66.5757 36.7678 67.3693C39.5245 68.1629 42.4211 68.3504 45.2577 67.9191C40.6414 67.1376 36.4516 64.7528 33.4302 61.1871C30.4088 57.6214 28.7509 53.1049 28.75 48.4375Z" fill="black"/>
<path d="M61.9185 131.169H22.2669C20.5663 131.167 18.936 130.493 17.7335 129.294C16.531 128.095 15.8546 126.47 15.8527 124.775V80.2125C15.8546 78.5173 16.531 76.8922 17.7335 75.6935C18.936 74.4949 20.5663 73.8206 22.2669 73.8187H28.2924V75.5625C28.2937 76.7439 28.7651 77.8766 29.6032 78.7121C30.4413 79.5475 31.5777 80.0174 32.7629 80.0187H51.4225C52.6077 80.0174 53.7441 79.5475 54.5821 78.7121C55.4202 77.8766 55.8917 76.7439 55.893 75.5625V73.8187H61.9185C63.6191 73.8206 65.2494 74.4949 66.4519 75.6935C67.6544 76.8922 68.3308 78.5173 68.3327 80.2125V124.775C68.3308 126.47 67.6544 128.095 66.4519 129.294C65.2494 130.493 63.6191 131.167 61.9185 131.169Z" fill="#E6E6E6"/>
<path d="M67.2388 173.987H51.6857V156.089L31.3736 125.044L44.3982 116.577L64.6214 147.487C66.0695 149.698 66.8617 152.273 66.9068 154.913L67.2388 173.987Z" fill="#E6E6E6"/>
<path d="M39.8291 185.806H24.6682V140.469H39.8291V185.806Z" fill="#E6E6E6"/>
<path d="M58.8085 144.731H25.3768C24.5008 144.73 23.6609 144.383 23.0414 143.765C22.4219 143.148 22.0735 142.311 22.0725 141.438V129.038C22.0735 128.164 22.4219 127.327 23.0414 126.71C23.6609 126.092 24.5008 125.745 25.3768 125.744H58.8085C59.6846 125.745 60.5245 126.092 61.144 126.71C61.7634 127.327 62.1119 128.164 62.1128 129.038V141.438C62.1119 142.311 61.7634 143.148 61.144 143.765C60.5245 144.383 59.6846 144.73 58.8085 144.731Z" fill="#E6E6E6"/>
<path d="M69.9566 181.156H51.8801V169.144H69.9566C71.5546 169.144 73.0872 169.777 74.2172 170.903C75.3472 172.029 75.9821 173.557 75.9821 175.15C75.9821 176.743 75.3472 178.271 74.2172 179.397C73.0872 180.523 71.5546 181.156 69.9566 181.156Z" fill="#CCCCCC"/>
<path d="M42.7447 185.806H24.6682V173.794H42.7447C44.3428 173.794 45.8754 174.427 47.0054 175.553C48.1354 176.679 48.7702 178.207 48.7702 179.8C48.7702 181.393 48.1354 182.921 47.0054 184.047C45.8754 185.173 44.3428 185.806 42.7447 185.806Z" fill="#CCCCCC"/>
<path d="M61.0155 93.5813H46.6321C46.2713 93.5813 45.9252 93.4384 45.67 93.184C45.4149 92.9297 45.2715 92.5847 45.2715 92.225C45.2715 91.8653 45.4149 91.5204 45.67 91.266C45.9252 91.0117 46.2713 90.8688 46.6321 90.8688H61.0155C61.3764 90.8688 61.7224 91.0117 61.9776 91.266C62.2328 91.5204 62.3761 91.8653 62.3761 92.225C62.3761 92.5847 62.2328 92.9297 61.9776 93.184C61.7224 93.4384 61.3764 93.5813 61.0155 93.5813Z" fill="white"/>
<path d="M61.0155 98.425H46.6321C46.2713 98.425 45.9252 98.2821 45.67 98.0278C45.4149 97.7734 45.2715 97.4285 45.2715 97.0688C45.2715 96.7091 45.4149 96.3641 45.67 96.1098C45.9252 95.8554 46.2713 95.7125 46.6321 95.7125H61.0155C61.3764 95.7125 61.7224 95.8554 61.9776 96.1098C62.2328 96.3641 62.3761 96.7091 62.3761 97.0688C62.3761 97.4285 62.2328 97.7734 61.9776 98.0278C61.7224 98.2821 61.3764 98.425 61.0155 98.425Z" fill="white"/>
<path d="M85.5231 186H0.388741C0.285641 186 0.186768 185.959 0.113865 185.886C0.0409622 185.814 0 185.715 0 185.612C0 185.51 0.0409622 185.411 0.113865 185.338C0.186768 185.266 0.285641 185.225 0.388741 185.225H85.5231C85.6262 185.225 85.725 185.266 85.7979 185.338C85.8708 185.411 85.9118 185.51 85.9118 185.612C85.9118 185.715 85.8708 185.814 85.7979 185.886C85.725 185.959 85.6262 186 85.5231 186Z" fill="#3F3D56"/>
<path d="M113.496 78.275C117.36 78.275 120.493 75.1522 120.493 71.3C120.493 67.4478 117.36 64.325 113.496 64.325C109.631 64.325 106.498 67.4478 106.498 71.3C106.498 75.1522 109.631 78.275 113.496 78.275Z" fill="#E6E6E6"/>
<path d="M115.634 99.3938C115.015 99.3931 114.422 99.1479 113.985 98.712C113.548 98.2762 113.302 97.6852 113.301 97.0688V13.3688C113.301 12.7521 113.547 12.1608 113.984 11.7247C114.422 11.2887 115.015 11.0438 115.634 11.0438C116.252 11.0438 116.846 11.2887 117.283 11.7247C117.72 12.1608 117.966 12.7521 117.966 13.3688V97.0688C117.965 97.6852 117.719 98.2762 117.282 98.712C116.845 99.1479 116.252 99.3931 115.634 99.3938Z" fill="#3F3D56"/>
<path d="M186.447 11.7567C184.398 9.97034 177.362 4.40973 168.285 3.39448C161.494 2.63886 153.559 4.42524 145.718 12.245C139.428 18.5148 133.496 21.4869 128.085 21.0839C122.561 20.6693 118.887 16.7555 117.189 14.4576C117.069 14.2933 116.9 14.1715 116.707 14.1102C116.513 14.0488 116.304 14.051 116.112 14.1166C115.915 14.1781 115.744 14.3009 115.623 14.467C115.502 14.6331 115.437 14.8336 115.439 15.0389V43.9696C115.44 44.153 115.492 44.3325 115.59 44.4875C115.689 44.6424 115.829 44.7665 115.995 44.8454C118.114 45.8451 125.745 49.166 133.426 49.166C137.932 49.166 142.461 48.0229 145.897 44.5935C145.932 44.5586 145.963 44.5276 145.998 44.4966C152.086 38.5911 165.505 39.804 175.298 41.7337C179.348 42.532 182.777 43.4504 184.81 44.0394C185.07 44.1143 185.345 44.1279 185.611 44.079C185.877 44.0301 186.129 43.9202 186.345 43.7578C186.562 43.5954 186.737 43.3851 186.858 43.1434C186.979 42.9018 187.042 42.6354 187.041 42.3654V13.0704C187.042 12.8219 186.989 12.5762 186.886 12.3497C186.784 12.1231 186.634 11.921 186.447 11.7567Z" fill="#6C63FF"/>
<path d="M202.129 94.1625C204.061 94.1625 205.627 92.6011 205.627 90.675C205.627 88.7489 204.061 87.1875 202.129 87.1875C200.196 87.1875 198.63 88.7489 198.63 90.675C198.63 92.6011 200.196 94.1625 202.129 94.1625Z" fill="white"/>
<path d="M195.909 132.525C197.841 132.525 199.407 130.964 199.407 129.037C199.407 127.111 197.841 125.55 195.909 125.55C193.976 125.55 192.41 127.111 192.41 129.037C192.41 130.964 193.976 132.525 195.909 132.525Z" fill="white"/>
<path d="M184.635 108.5C187.856 108.5 190.466 105.898 190.466 102.687C190.466 99.4773 187.856 96.875 184.635 96.875C181.415 96.875 178.804 99.4773 178.804 102.687C178.804 105.898 181.415 108.5 184.635 108.5Z" fill="white"/>
</g>
<defs>
<clipPath id="clip0">
<rect width="248" height="186" fill="white"/>
</clipPath>
</defs>
</svg>
