<svg width="259" height="163" viewBox="0 0 259 163" fill="none" xmlns="http://www.w3.org/2000/svg">
<g clip-path="url(#clip0)">
<path d="M259.002 17.1204V145.876C259.003 148.125 258.56 150.351 257.698 152.429C256.836 154.506 255.573 156.394 253.98 157.984C252.387 159.574 250.495 160.835 248.414 161.695C246.332 162.555 244.101 162.997 241.848 162.996H17.1555C13.2659 163.001 9.49077 161.684 6.45083 159.262C3.41088 156.84 1.28713 153.458 0.428844 149.672C0.365312 149.334 0.307074 148.994 0.252366 148.652C0.143898 147.993 0.0743634 147.327 0.0441211 146.66C0.0441211 146.577 0.0335324 146.493 0.0300028 146.41C0.0300028 146.234 1.45417e-06 146.057 1.45417e-06 145.881V17.1204C-0.000926415 14.8717 0.442193 12.6449 1.30403 10.5672C2.16587 8.48955 3.42952 6.60176 5.02276 5.01178C6.61601 3.42179 8.5076 2.16078 10.5894 1.30083C12.6712 0.440875 14.9024 -0.00115514 17.1555 2.26701e-06H241.848C244.101 -0.000923634 246.332 0.441278 248.414 1.30133C250.495 2.16139 252.387 3.42243 253.98 5.0124C255.573 6.60236 256.836 8.49007 257.698 10.5676C258.56 12.6452 259.003 14.8719 259.002 17.1204Z" fill="#66ADFD"/>
<g opacity="0.33">
<path opacity="0.33" d="M0.139404 77.2375C4.10968 75.7436 8.21802 74.6444 12.4047 73.9561V87.9237C8.14989 88.8175 4.02775 90.253 0.139404 92.195L0.139404 77.2375Z" fill="#006B66"/>
<path opacity="0.33" d="M88.4475 138.293C88.4623 146.766 86.8123 155.159 83.5908 162.998H68.3907C72.548 155.426 74.7206 146.928 74.7069 138.293C74.7066 126.421 70.5957 114.913 63.0703 105.719C55.5448 96.5238 45.0671 90.207 33.4109 87.8374L33.4109 73.8927C48.7592 76.3416 62.7305 84.1701 72.8172 95.9729C82.9039 107.776 88.4456 122.78 88.4475 138.293Z" fill="#006B66"/>
<path opacity="0.33" d="M26.0182 66.9934C26.0182 65.2619 24.6122 63.8582 22.8778 63.8582C21.1434 63.8582 19.7374 65.2619 19.7374 66.9934V125.809C19.7374 127.54 21.1434 128.944 22.8778 128.944C24.6122 128.944 26.0182 127.54 26.0182 125.809V66.9934Z" fill="#006B66"/>
<path opacity="0.33" d="M0.0758972 119.94H16.8308V98.1625C12.0691 99.5224 7.87096 102.373 4.85457 106.293C1.83818 110.214 0.163042 114.998 0.0758972 119.94Z" fill="#006B66"/>
<path opacity="0.33" d="M28.4007 98.0885V119.929H45.3709C45.2837 114.948 43.5836 110.129 40.5248 106.192C37.4659 102.256 33.2126 99.4127 28.4007 98.0885H28.4007Z" fill="#006B66"/>
<path opacity="0.33" d="M45.3762 123.283V145.282C45.3788 148.692 44.6069 152.057 43.1186 155.126C41.6303 158.195 39.4643 160.887 36.7834 163H17.1537C13.2637 163.004 9.48815 161.686 6.44813 159.264C3.40812 156.842 1.28467 153.459 0.427081 149.672C0.30884 149.043 0.202953 148.414 0.139421 147.764C0.0445274 146.94 -0.00202471 146.112 2.40791e-06 145.282V123.283C2.40791e-06 123.07 0.0105911 122.857 0.0211798 122.654H17.1184V125.988C17.1184 127.475 17.71 128.9 18.7629 129.951C19.8159 131.002 21.244 131.592 22.7331 131.592C24.2222 131.592 25.6503 131.002 26.7033 129.951C27.7562 128.9 28.3478 127.475 28.3478 125.988V122.654H45.355C45.3656 122.857 45.3762 123.07 45.3762 123.283Z" fill="#006B66"/>
</g>
<path d="M205.649 147.095C205.641 146.973 205.657 146.85 205.696 146.734C205.736 146.617 205.798 146.51 205.878 146.418C205.959 146.326 206.058 146.25 206.168 146.196C206.278 146.142 206.398 146.11 206.521 146.101H206.595C206.718 146.101 206.839 146.124 206.953 146.17C207.067 146.216 207.171 146.284 207.258 146.37C207.346 146.456 207.415 146.558 207.463 146.671C207.511 146.784 207.536 146.905 207.537 147.028C207.537 147.053 207.537 147.076 207.537 147.098C207.554 147.345 207.471 147.589 207.308 147.775C207.145 147.961 206.914 148.075 206.667 148.092H206.597C206.474 148.093 206.352 148.071 206.238 148.025C206.124 147.98 206.02 147.913 205.932 147.827C205.844 147.741 205.774 147.639 205.726 147.527C205.678 147.414 205.652 147.293 205.651 147.171C205.651 147.146 205.651 147.121 205.651 147.097L205.649 147.095ZM208.176 147.097V145.538H207.495V145.917C207.379 145.768 207.23 145.649 207.059 145.569C206.888 145.49 206.7 145.453 206.512 145.46C206.306 145.461 206.103 145.501 205.913 145.58C205.723 145.659 205.551 145.774 205.406 145.919C205.261 146.065 205.146 146.237 205.068 146.427C204.99 146.616 204.949 146.819 204.95 147.024C204.95 147.049 204.95 147.072 204.95 147.097C204.93 147.51 205.076 147.914 205.355 148.221C205.634 148.527 206.023 148.71 206.438 148.729H206.51C206.699 148.738 206.887 148.701 207.058 148.621C207.23 148.542 207.379 148.423 207.495 148.273V148.65H208.174L208.176 147.097ZM231.081 147.097C231.065 146.85 231.147 146.607 231.31 146.42C231.473 146.234 231.704 146.12 231.951 146.103H232.027C232.15 146.102 232.272 146.126 232.385 146.172C232.499 146.218 232.603 146.286 232.69 146.372C232.777 146.458 232.847 146.56 232.894 146.673C232.942 146.786 232.967 146.907 232.968 147.03C232.968 147.054 232.968 147.077 232.968 147.1C232.976 147.222 232.96 147.345 232.921 147.461C232.882 147.577 232.82 147.684 232.74 147.776C232.659 147.869 232.561 147.944 232.451 147.999C232.341 148.053 232.222 148.085 232.099 148.094H232.029C231.906 148.095 231.784 148.073 231.67 148.027C231.556 147.982 231.452 147.914 231.364 147.829C231.276 147.743 231.206 147.641 231.157 147.529C231.109 147.416 231.083 147.295 231.081 147.172C231.081 147.148 231.081 147.123 231.081 147.098V147.097ZM233.605 147.098V144.289H232.927V145.917C232.811 145.768 232.661 145.649 232.49 145.569C232.319 145.49 232.131 145.453 231.942 145.46C231.528 145.461 231.13 145.627 230.837 145.92C230.544 146.213 230.38 146.61 230.381 147.024C230.381 147.049 230.381 147.072 230.381 147.097C230.361 147.51 230.507 147.914 230.786 148.221C231.065 148.527 231.454 148.71 231.868 148.729H231.941C232.129 148.738 232.317 148.701 232.489 148.621C232.66 148.542 232.81 148.422 232.925 148.273V148.65H233.605V147.098ZM216.587 146.064C216.792 146.061 216.99 146.138 217.138 146.28C217.286 146.421 217.371 146.616 217.376 146.82H215.759C215.771 146.611 215.864 146.415 216.019 146.274C216.174 146.133 216.377 146.058 216.587 146.064ZM216.601 145.46C216.197 145.451 215.807 145.603 215.515 145.881C215.223 146.16 215.054 146.542 215.045 146.945C215.045 146.994 215.045 147.046 215.045 147.095C215.031 147.296 215.058 147.498 215.122 147.689C215.187 147.88 215.289 148.056 215.422 148.208C215.555 148.359 215.717 148.483 215.898 148.573C216.079 148.662 216.276 148.714 216.478 148.728C216.532 148.728 216.587 148.728 216.643 148.728C217.108 148.744 217.563 148.589 217.921 148.293L217.591 147.794C217.333 147.999 217.014 148.114 216.684 148.12C216.459 148.138 216.237 148.069 216.062 147.926C215.888 147.784 215.776 147.579 215.75 147.356H218.068C218.068 147.271 218.08 147.179 218.08 147.097C218.118 146.703 217.997 146.31 217.745 146.005C217.493 145.7 217.13 145.507 216.735 145.469C216.691 145.469 216.645 145.469 216.601 145.469V145.46ZM224.786 147.105C224.778 146.983 224.794 146.86 224.833 146.744C224.872 146.627 224.934 146.52 225.015 146.427C225.096 146.335 225.195 146.259 225.305 146.205C225.415 146.15 225.535 146.118 225.658 146.11H225.732C225.98 146.109 226.218 146.206 226.394 146.379C226.571 146.553 226.671 146.789 226.673 147.037C226.673 147.06 226.673 147.083 226.673 147.107C226.681 147.229 226.665 147.352 226.626 147.468C226.587 147.584 226.525 147.691 226.445 147.784C226.364 147.876 226.266 147.951 226.156 148.006C226.046 148.06 225.927 148.092 225.804 148.101H225.732C225.609 148.102 225.487 148.08 225.373 148.035C225.259 147.989 225.155 147.922 225.067 147.836C224.979 147.751 224.908 147.649 224.86 147.536C224.811 147.423 224.786 147.302 224.784 147.179C224.783 147.155 224.783 147.13 224.784 147.105H224.786ZM227.308 147.105V145.541H226.632V145.918C226.516 145.77 226.366 145.651 226.195 145.572C226.024 145.492 225.836 145.455 225.647 145.462C225.442 145.462 225.238 145.503 225.049 145.582C224.859 145.66 224.687 145.776 224.542 145.921C224.397 146.066 224.282 146.239 224.203 146.428C224.125 146.618 224.085 146.821 224.086 147.026C224.086 147.051 224.086 147.074 224.086 147.098C224.076 147.303 224.106 147.508 224.176 147.701C224.245 147.894 224.352 148.072 224.49 148.223C224.628 148.375 224.795 148.498 224.981 148.586C225.167 148.673 225.368 148.723 225.573 148.733H225.646C225.834 148.741 226.022 148.704 226.194 148.624C226.365 148.545 226.515 148.426 226.63 148.277V148.654H227.306L227.308 147.105ZM220.955 147.105C220.938 147.522 221.087 147.928 221.369 148.234C221.652 148.541 222.045 148.723 222.462 148.74C222.514 148.743 222.566 148.743 222.617 148.74C223.024 148.761 223.423 148.628 223.736 148.368L223.415 147.812C223.181 147.991 222.895 148.089 222.6 148.092C222.353 148.094 222.116 147.999 221.939 147.827C221.763 147.655 221.662 147.42 221.659 147.174C221.659 147.148 221.659 147.121 221.659 147.097C221.65 146.975 221.665 146.852 221.703 146.736C221.742 146.62 221.803 146.513 221.883 146.421C221.964 146.328 222.061 146.253 222.171 146.198C222.28 146.144 222.4 146.112 222.522 146.103C222.547 146.102 222.573 146.102 222.598 146.103C222.893 146.106 223.179 146.204 223.413 146.383L223.738 145.836C223.425 145.577 223.027 145.444 222.621 145.462C222.414 145.45 222.207 145.479 222.012 145.547C221.817 145.615 221.637 145.721 221.482 145.858C221.328 145.995 221.202 146.162 221.112 146.348C221.022 146.534 220.97 146.736 220.958 146.942C220.956 146.993 220.956 147.045 220.958 147.097L220.955 147.105ZM229.698 145.462C229.534 145.459 229.372 145.5 229.229 145.58C229.087 145.66 228.968 145.777 228.886 145.918V145.541H228.215V148.652H228.886V146.908C228.886 146.394 229.108 146.109 229.551 146.109C229.696 146.105 229.84 146.131 229.975 146.183L230.185 145.545C230.029 145.489 229.866 145.461 229.701 145.46L229.698 145.462ZM211.529 145.784C211.145 145.558 210.704 145.445 210.258 145.46C209.468 145.46 208.961 145.837 208.961 146.457C208.961 146.965 209.341 147.275 210.038 147.375L210.357 147.421C210.73 147.474 210.904 147.569 210.904 147.745C210.904 147.986 210.657 148.124 210.198 148.124C209.826 148.134 209.46 148.02 209.161 147.798L208.841 148.326C209.233 148.598 209.702 148.739 210.179 148.728C211.079 148.728 211.601 148.305 211.601 147.713C211.601 147.165 211.19 146.88 210.513 146.781L210.193 146.736C209.898 146.697 209.664 146.637 209.664 146.429C209.664 146.221 209.886 146.064 210.26 146.064C210.601 146.07 210.935 146.162 211.231 146.332L211.529 145.784ZM220.275 145.46C220.111 145.456 219.948 145.496 219.804 145.576C219.66 145.656 219.54 145.773 219.457 145.915V145.538H218.788V148.65H219.465V146.906C219.465 146.392 219.688 146.105 220.131 146.105C220.276 146.101 220.421 146.126 220.556 146.179L220.768 145.541C220.612 145.486 220.449 145.458 220.284 145.457L220.275 145.46ZM214.494 145.534H213.386V144.59H212.701V145.534H212.067V146.153H212.701V147.572C212.701 148.294 212.98 148.724 213.783 148.724C214.082 148.724 214.375 148.64 214.63 148.483L214.434 147.902C214.252 148.01 214.046 148.07 213.834 148.078C213.495 148.078 213.387 147.868 213.387 147.549V146.14H214.496L214.494 145.534ZM204.355 148.647V146.693C204.376 146.387 204.274 146.086 204.072 145.855C203.87 145.624 203.585 145.482 203.279 145.46C203.229 145.458 203.179 145.458 203.129 145.46C202.913 145.446 202.697 145.491 202.505 145.588C202.312 145.686 202.149 145.833 202.033 146.015C201.928 145.838 201.776 145.692 201.595 145.594C201.413 145.496 201.208 145.448 201.002 145.457C200.824 145.448 200.646 145.487 200.487 145.568C200.327 145.648 200.192 145.769 200.093 145.918V145.534H199.414V148.647H200.099V146.922C200.085 146.828 200.091 146.731 200.115 146.639C200.139 146.546 200.182 146.459 200.239 146.383C200.297 146.307 200.37 146.243 200.452 146.194C200.535 146.146 200.627 146.114 200.722 146.101C200.768 146.097 200.816 146.097 200.863 146.101C201.309 146.101 201.54 146.394 201.54 146.921V148.652H202.225V146.919C202.213 146.823 202.219 146.726 202.245 146.633C202.27 146.54 202.313 146.453 202.372 146.377C202.431 146.301 202.505 146.237 202.589 146.189C202.672 146.141 202.765 146.11 202.86 146.098C202.903 146.094 202.945 146.094 202.988 146.098C203.452 146.098 203.672 146.39 203.672 146.915V148.64L204.355 148.647Z" fill="white"/>
<path d="M221.601 121.83H211.328V140.257H221.601V121.83Z" fill="#FF5F00"/>
<path d="M211.986 131.044C211.984 129.268 212.386 127.516 213.163 125.919C213.94 124.322 215.071 122.922 216.47 121.826C214.738 120.467 212.658 119.622 210.467 119.387C208.276 119.152 206.063 119.537 204.081 120.498C202.099 121.459 200.428 122.958 199.259 124.822C198.09 126.686 197.47 128.841 197.47 131.04C197.47 133.239 198.09 135.394 199.259 137.258C200.428 139.122 202.099 140.621 204.081 141.582C206.063 142.543 208.276 142.928 210.467 142.693C212.658 142.458 214.738 141.613 216.47 140.254C215.072 139.158 213.941 137.759 213.164 136.162C212.387 134.565 211.984 132.813 211.986 131.038" fill="#EB001B"/>
<path d="M235.458 131.044C235.458 133.243 234.838 135.397 233.669 137.261C232.5 139.125 230.829 140.623 228.847 141.584C226.866 142.545 224.653 142.93 222.463 142.695C220.272 142.46 218.192 141.615 216.46 140.256C217.859 139.161 218.99 137.762 219.767 136.166C220.545 134.57 220.948 132.818 220.946 131.044C220.948 129.268 220.545 127.516 219.768 125.919C218.991 124.322 217.86 122.922 216.46 121.826C218.192 120.467 220.272 119.622 222.463 119.387C224.653 119.152 226.866 119.537 228.847 120.498C230.829 121.459 232.5 122.957 233.669 124.821C234.838 126.685 235.458 128.839 235.458 131.038" fill="#F79E1B"/>
<path d="M225.45 15.5793V17.98C227.607 18.4176 229.524 19.638 230.832 21.4052C232.139 23.1723 232.744 25.3606 232.528 27.5467C232.313 29.7329 231.292 31.7617 229.665 33.2405C228.037 34.7194 225.918 35.5434 223.717 35.553C221.516 35.5626 219.39 34.7573 217.749 33.2927C216.109 31.8282 215.071 29.8084 214.836 27.6242C214.601 25.44 215.186 23.2465 216.478 21.468C217.77 19.6895 219.677 18.4523 221.83 17.9958V15.5916C219.04 16.0549 216.527 17.5496 214.79 19.7783C213.054 22.0069 212.222 24.8062 212.46 27.6193C212.698 30.4323 213.988 33.053 216.073 34.9599C218.159 36.8668 220.888 37.9202 223.716 37.9106C226.545 37.901 229.266 36.829 231.339 34.9079C233.411 32.9868 234.683 30.3574 234.902 27.5428C235.12 24.7282 234.269 21.9346 232.518 19.7179C230.766 17.5011 228.243 16.0236 225.45 15.5793V15.5793Z" fill="white"/>
<path d="M223.635 25.0642C223.779 25.0637 223.916 25.0065 224.017 24.9052C224.119 24.8038 224.175 24.6666 224.175 24.5234V14.3903C224.168 14.2525 224.107 14.1229 224.007 14.0281C223.906 13.9333 223.773 13.8804 223.635 13.8804C223.496 13.8804 223.363 13.9333 223.263 14.0281C223.162 14.1229 223.102 14.2525 223.094 14.3903V24.5234C223.094 24.6669 223.151 24.8044 223.252 24.9058C223.354 25.0072 223.492 25.0642 223.635 25.0642Z" fill="white"/>
<path d="M219.705 23.5124H222.591V19.7607C221.77 19.995 221.047 20.486 220.528 21.1615C220.008 21.8369 219.72 22.6611 219.705 23.5124V23.5124Z" fill="white"/>
<path d="M224.587 19.7466V23.5107H227.511C227.496 22.6522 227.203 21.8217 226.676 21.1432C226.149 20.4647 225.416 19.9747 224.587 19.7466V19.7466Z" fill="white"/>
<path d="M219.693 23.9792C219.693 24.0162 219.693 24.0514 219.693 24.0884V27.8771C219.693 28.9099 220.104 29.9005 220.836 30.6308C221.568 31.3612 222.56 31.7715 223.595 31.7715H223.607C224.12 31.7715 224.627 31.6707 225.1 31.475C225.574 31.2793 226.004 30.9924 226.366 30.6308C226.729 30.2692 227.016 29.8399 227.212 29.3674C227.408 28.8949 227.509 28.3885 227.509 27.8771V24.0884C227.509 24.0514 227.509 24.0144 227.509 23.9792H224.574V24.5552C224.574 24.8121 224.472 25.0585 224.29 25.2402C224.108 25.4218 223.861 25.5239 223.604 25.5239C223.346 25.5239 223.099 25.4218 222.917 25.2402C222.735 25.0585 222.633 24.8121 222.633 24.5552V23.9792H219.693Z" fill="white"/>
<path opacity="0.4" d="M46.1086 14.9152H31.7926C27.2039 14.9152 23.484 18.6279 23.484 23.2077V29.7054C23.484 34.2852 27.2039 37.9979 31.7926 37.9979H46.1086C50.6973 37.9979 54.4172 34.2852 54.4172 29.7054V23.2077C54.4172 18.6279 50.6973 14.9152 46.1086 14.9152Z" fill="#00EAEA"/>
<path d="M37.4629 20.2134V34.5808H35.3257V26.896H27.9577V25.0448H35.3257V22.0663H27.9577V20.2134H37.4629Z" fill="#AEF7FF"/>
<path d="M41.9013 23.0492V25.6243H49.9434V27.6481H41.9013V34.5808H39.5683V18.334H41.9013V21.0289H49.9434V23.0492H41.9013Z" fill="#AEF7FF"/>
<path d="M55.186 76.864C55.8207 76.864 56.3667 76.976 56.824 77.2C57.2813 77.424 57.6267 77.732 57.86 78.124C58.0933 78.516 58.21 78.9593 58.21 79.454C58.21 80.07 58.028 80.588 57.664 81.008C57.3093 81.428 56.7867 81.68 56.096 81.764V81.848C56.8147 82.0347 57.3747 82.324 57.776 82.716C58.1867 83.108 58.392 83.6493 58.392 84.34C58.392 85.152 58.1213 85.8147 57.58 86.328C57.0387 86.8413 56.2593 87.098 55.242 87.098C54.2247 87.098 53.3987 86.8367 52.764 86.314C52.1387 85.782 51.77 85.0073 51.658 83.99H52.918C53.002 84.606 53.2353 85.096 53.618 85.46C54.01 85.824 54.5373 86.006 55.2 86.006C55.8253 86.006 56.306 85.8473 56.642 85.53C56.978 85.2033 57.146 84.7833 57.146 84.27C57.146 83.654 56.9033 83.1873 56.418 82.87C55.942 82.5433 55.2607 82.38 54.374 82.38H54.038V81.316H54.374C56.0913 81.316 56.95 80.742 56.95 79.594C56.95 79.09 56.7913 78.6887 56.474 78.39C56.1567 78.0913 55.718 77.942 55.158 77.942C54.598 77.942 54.1267 78.1053 53.744 78.432C53.3613 78.7493 53.1373 79.2207 53.072 79.846H51.826C51.8913 78.9127 52.2133 78.1847 52.792 77.662C53.38 77.13 54.178 76.864 55.186 76.864ZM66.6921 78.138H61.6241V81.442C61.8575 81.1247 62.1935 80.8727 62.6321 80.686C63.0708 80.4993 63.5515 80.406 64.0741 80.406C64.7741 80.406 65.3528 80.5553 65.8101 80.854C66.2768 81.1433 66.6175 81.5307 66.8321 82.016C67.0561 82.492 67.1681 83.024 67.1681 83.612C67.1681 84.6293 66.8835 85.46 66.3141 86.104C65.7448 86.748 64.9095 87.07 63.8081 87.07C62.8188 87.07 62.0115 86.804 61.3861 86.272C60.7608 85.7307 60.4108 85.0073 60.3361 84.102H61.5961C61.6988 84.6807 61.9368 85.1333 62.3101 85.46C62.6928 85.7773 63.1735 85.936 63.7521 85.936C64.4708 85.936 65.0121 85.7213 65.3761 85.292C65.7401 84.8627 65.9221 84.298 65.9221 83.598C65.9221 82.9167 65.7355 82.3847 65.3621 82.002C64.9888 81.6193 64.4615 81.428 63.7801 81.428C63.2948 81.428 62.8701 81.5353 62.5061 81.75C62.1421 81.9553 61.8668 82.2353 61.6801 82.59H60.4481V77.004H66.6921V78.138ZM68.4591 86.02C70.0458 84.956 71.3151 83.9013 72.2671 82.856C73.2191 81.8013 73.6951 80.8213 73.6951 79.916C73.6951 79.356 73.5504 78.908 73.2611 78.572C72.9811 78.2267 72.5238 78.054 71.8891 78.054C71.2358 78.054 70.7411 78.264 70.4051 78.684C70.0691 79.0947 69.8824 79.664 69.8451 80.392H68.5851C68.6504 79.2907 68.9911 78.446 69.6071 77.858C70.2231 77.2607 71.0164 76.962 71.9871 76.962C72.9111 76.962 73.6438 77.2093 74.1851 77.704C74.7264 78.1987 74.9971 78.8987 74.9971 79.804C74.9971 80.5507 74.7544 81.3113 74.2691 82.086C73.7931 82.8513 73.1911 83.5653 72.4631 84.228C71.7444 84.8813 71.0024 85.4367 70.2371 85.894H75.2491V86.944H68.4591V86.02ZM76.8085 79.454C76.8085 78.9687 76.9391 78.5253 77.2005 78.124C77.4618 77.7227 77.8491 77.4053 78.3625 77.172C78.8758 76.9387 79.4871 76.822 80.1965 76.822C80.9058 76.822 81.5125 76.9387 82.0165 77.172C82.5298 77.4053 82.9171 77.7227 83.1785 78.124C83.4398 78.5253 83.5705 78.9687 83.5705 79.454C83.5705 80.0047 83.4211 80.4807 83.1225 80.882C82.8238 81.2833 82.3711 81.568 81.7645 81.736C82.4178 81.9133 82.9265 82.2213 83.2905 82.66C83.6545 83.0987 83.8365 83.64 83.8365 84.284C83.8365 85.2173 83.5051 85.95 82.8425 86.482C82.1798 87.014 81.2978 87.28 80.1965 87.28C79.0951 87.28 78.2131 87.014 77.5505 86.482C76.8878 85.95 76.5565 85.2173 76.5565 84.284C76.5565 83.64 76.7338 83.0987 77.0885 82.66C77.4525 82.2213 77.9611 81.9133 78.6145 81.736C78.0078 81.568 77.5551 81.2833 77.2565 80.882C76.9578 80.4807 76.8085 80.0047 76.8085 79.454ZM78.0685 79.636C78.0685 80.196 78.2598 80.63 78.6425 80.938C79.0251 81.2367 79.5431 81.386 80.1965 81.386C80.8498 81.386 81.3631 81.2367 81.7365 80.938C82.1191 80.63 82.3105 80.196 82.3105 79.636C82.3105 79.076 82.1191 78.6467 81.7365 78.348C81.3538 78.04 80.8405 77.886 80.1965 77.886C79.5525 77.886 79.0345 78.04 78.6425 78.348C78.2598 78.6467 78.0685 79.076 78.0685 79.636ZM77.8025 84.214C77.8025 84.8487 78.0171 85.3433 78.4465 85.698C78.8758 86.0433 79.4591 86.216 80.1965 86.216C80.9245 86.216 81.5031 86.0387 81.9325 85.684C82.3618 85.3293 82.5765 84.8393 82.5765 84.214C82.5765 83.5793 82.3525 83.0987 81.9045 82.772C81.4565 82.4453 80.8871 82.282 80.1965 82.282C79.4965 82.282 78.9225 82.4453 78.4745 82.772C78.0265 83.0987 77.8025 83.5793 77.8025 84.214ZM91.9164 84.732V83.668L96.9844 77.06H98.3564V83.626H99.8124V84.732H98.3564V87H97.0684V84.732H91.9164ZM97.1524 78.614L93.2604 83.626H97.1524V78.614ZM100.346 78.32V77.13H103.174V87H101.83V78.32H100.346ZM106.424 84.228C106.508 84.816 106.713 85.2687 107.04 85.586C107.366 85.9033 107.814 86.062 108.384 86.062C109.168 86.062 109.76 85.7587 110.162 85.152C110.563 84.5453 110.764 83.584 110.764 82.268C110.764 82.016 110.759 81.8247 110.75 81.694C110.619 82.254 110.302 82.702 109.798 83.038C109.294 83.374 108.701 83.542 108.02 83.542C107.04 83.542 106.27 83.248 105.71 82.66C105.15 82.072 104.87 81.2507 104.87 80.196C104.87 79.58 104.991 79.02 105.234 78.516C105.476 78.012 105.845 77.6153 106.34 77.326C106.844 77.0273 107.464 76.878 108.202 76.878C109.62 76.878 110.591 77.3167 111.114 78.194C111.646 79.062 111.912 80.2567 111.912 81.778C111.912 83.514 111.641 84.8393 111.1 85.754C110.558 86.6593 109.653 87.112 108.384 87.112C107.441 87.112 106.699 86.846 106.158 86.314C105.626 85.7727 105.313 85.0773 105.22 84.228H106.424ZM110.624 80.392C110.624 79.72 110.423 79.1507 110.022 78.684C109.63 78.2173 109.037 77.984 108.244 77.984C107.59 77.984 107.068 78.18 106.676 78.572C106.284 78.964 106.088 79.51 106.088 80.21C106.088 80.9567 106.284 81.5307 106.676 81.932C107.068 82.3333 107.604 82.534 108.286 82.534C108.678 82.534 109.051 82.4547 109.406 82.296C109.77 82.1373 110.064 81.8947 110.288 81.568C110.512 81.2413 110.624 80.8493 110.624 80.392ZM113.135 84.732V83.668L118.203 77.06H119.575V83.626H121.031V84.732H119.575V87H118.287V84.732H113.135ZM118.371 78.614L114.479 83.626H118.371V78.614ZM129.295 79.454C129.295 78.9687 129.425 78.5253 129.687 78.124C129.948 77.7227 130.335 77.4053 130.849 77.172C131.362 76.9387 131.973 76.822 132.683 76.822C133.392 76.822 133.999 76.9387 134.503 77.172C135.016 77.4053 135.403 77.7227 135.665 78.124C135.926 78.5253 136.057 78.9687 136.057 79.454C136.057 80.0047 135.907 80.4807 135.609 80.882C135.31 81.2833 134.857 81.568 134.251 81.736C134.904 81.9133 135.413 82.2213 135.777 82.66C136.141 83.0987 136.323 83.64 136.323 84.284C136.323 85.2173 135.991 85.95 135.329 86.482C134.666 87.014 133.784 87.28 132.683 87.28C131.581 87.28 130.699 87.014 130.037 86.482C129.374 85.95 129.043 85.2173 129.043 84.284C129.043 83.64 129.22 83.0987 129.575 82.66C129.939 82.2213 130.447 81.9133 131.101 81.736C130.494 81.568 130.041 81.2833 129.743 80.882C129.444 80.4807 129.295 80.0047 129.295 79.454ZM130.555 79.636C130.555 80.196 130.746 80.63 131.129 80.938C131.511 81.2367 132.029 81.386 132.683 81.386C133.336 81.386 133.849 81.2367 134.223 80.938C134.605 80.63 134.797 80.196 134.797 79.636C134.797 79.076 134.605 78.6467 134.223 78.348C133.84 78.04 133.327 77.886 132.683 77.886C132.039 77.886 131.521 78.04 131.129 78.348C130.746 78.6467 130.555 79.076 130.555 79.636ZM130.289 84.214C130.289 84.8487 130.503 85.3433 130.933 85.698C131.362 86.0433 131.945 86.216 132.683 86.216C133.411 86.216 133.989 86.0387 134.419 85.684C134.848 85.3293 135.063 84.8393 135.063 84.214C135.063 83.5793 134.839 83.0987 134.391 82.772C133.943 82.4453 133.373 82.282 132.683 82.282C131.983 82.282 131.409 82.4453 130.961 82.772C130.513 83.0987 130.289 83.5793 130.289 84.214ZM139.291 84.228C139.375 84.816 139.58 85.2687 139.907 85.586C140.233 85.9033 140.681 86.062 141.251 86.062C142.035 86.062 142.627 85.7587 143.029 85.152C143.43 84.5453 143.631 83.584 143.631 82.268C143.631 82.016 143.626 81.8247 143.617 81.694C143.486 82.254 143.169 82.702 142.665 83.038C142.161 83.374 141.568 83.542 140.887 83.542C139.907 83.542 139.137 83.248 138.577 82.66C138.017 82.072 137.737 81.2507 137.737 80.196C137.737 79.58 137.858 79.02 138.101 78.516C138.343 78.012 138.712 77.6153 139.207 77.326C139.711 77.0273 140.331 76.878 141.069 76.878C142.487 76.878 143.458 77.3167 143.981 78.194C144.513 79.062 144.779 80.2567 144.779 81.778C144.779 83.514 144.508 84.8393 143.967 85.754C143.425 86.6593 142.52 87.112 141.251 87.112C140.308 87.112 139.566 86.846 139.025 86.314C138.493 85.7727 138.18 85.0773 138.087 84.228H139.291ZM143.491 80.392C143.491 79.72 143.29 79.1507 142.889 78.684C142.497 78.2173 141.904 77.984 141.111 77.984C140.457 77.984 139.935 78.18 139.543 78.572C139.151 78.964 138.955 79.51 138.955 80.21C138.955 80.9567 139.151 81.5307 139.543 81.932C139.935 82.3333 140.471 82.534 141.153 82.534C141.545 82.534 141.918 82.4547 142.273 82.296C142.637 82.1373 142.931 81.8947 143.155 81.568C143.379 81.2413 143.491 80.8493 143.491 80.392ZM146.002 84.732V83.668L151.07 77.06H152.442V83.626H153.898V84.732H152.442V87H151.154V84.732H146.002ZM151.238 78.614L147.346 83.626H151.238V78.614ZM155.048 82.002C155.048 83.5887 155.309 84.8253 155.832 85.712C156.355 86.5987 157.26 87.042 158.548 87.042C159.836 87.042 160.741 86.5987 161.264 85.712C161.796 84.8253 162.062 83.5887 162.062 82.002C162.062 80.434 161.796 79.2067 161.264 78.32C160.741 77.4333 159.836 76.99 158.548 76.99C157.26 76.99 156.355 77.4333 155.832 78.32C155.309 79.1973 155.048 80.4247 155.048 82.002ZM160.802 82.002C160.802 82.814 160.741 83.4953 160.62 84.046C160.508 84.5873 160.289 85.0213 159.962 85.348C159.635 85.6747 159.164 85.838 158.548 85.838C157.941 85.838 157.475 85.6747 157.148 85.348C156.821 85.0213 156.597 84.5873 156.476 84.046C156.364 83.4953 156.308 82.814 156.308 82.002C156.308 81.1993 156.364 80.5273 156.476 79.986C156.597 79.4447 156.821 79.0153 157.148 78.698C157.475 78.3713 157.941 78.208 158.548 78.208C159.164 78.208 159.635 78.3713 159.962 78.698C160.289 79.0153 160.508 79.4447 160.62 79.986C160.741 80.5273 160.802 81.1993 160.802 82.002ZM170.202 84.732V83.668L175.27 77.06H176.642V83.626H178.098V84.732H176.642V87H175.354V84.732H170.202ZM175.438 78.614L171.546 83.626H175.438V78.614ZM179.247 82.002C179.247 83.5887 179.509 84.8253 180.031 85.712C180.554 86.5987 181.459 87.042 182.747 87.042C184.035 87.042 184.941 86.5987 185.463 85.712C185.995 84.8253 186.261 83.5887 186.261 82.002C186.261 80.434 185.995 79.2067 185.463 78.32C184.941 77.4333 184.035 76.99 182.747 76.99C181.459 76.99 180.554 77.4333 180.031 78.32C179.509 79.1973 179.247 80.4247 179.247 82.002ZM185.001 82.002C185.001 82.814 184.941 83.4953 184.819 84.046C184.707 84.5873 184.488 85.0213 184.161 85.348C183.835 85.6747 183.363 85.838 182.747 85.838C182.141 85.838 181.674 85.6747 181.347 85.348C181.021 85.0213 180.797 84.5873 180.675 84.046C180.563 83.4953 180.507 82.814 180.507 82.002C180.507 81.1993 180.563 80.5273 180.675 79.986C180.797 79.4447 181.021 79.0153 181.347 78.698C181.674 78.3713 182.141 78.208 182.747 78.208C183.363 78.208 183.835 78.3713 184.161 78.698C184.488 79.0153 184.707 79.4447 184.819 79.986C184.941 80.5273 185.001 81.1993 185.001 82.002ZM187.637 86.02C189.223 84.956 190.493 83.9013 191.445 82.856C192.397 81.8013 192.873 80.8213 192.873 79.916C192.873 79.356 192.728 78.908 192.439 78.572C192.159 78.2267 191.701 78.054 191.067 78.054C190.413 78.054 189.919 78.264 189.583 78.684C189.247 79.0947 189.06 79.664 189.023 80.392H187.763C187.828 79.2907 188.169 78.446 188.785 77.858C189.401 77.2607 190.194 76.962 191.165 76.962C192.089 76.962 192.821 77.2093 193.363 77.704C193.904 78.1987 194.175 78.8987 194.175 79.804C194.175 80.5507 193.932 81.3113 193.447 82.086C192.971 82.8513 192.369 83.5653 191.641 84.228C190.922 84.8813 190.18 85.4367 189.415 85.894H194.427V86.944H187.637V86.02ZM195.426 84.732V83.668L200.494 77.06H201.866V83.626H203.322V84.732H201.866V87H200.578V84.732H195.426ZM200.662 78.614L196.77 83.626H200.662V78.614Z" fill="white"/>
</g>
<defs>
<clipPath id="clip0">
<rect width="259" height="163" fill="white"/>
</clipPath>
</defs>
</svg>
