<svg width="259" height="163" viewBox="0 0 259 163" fill="none" xmlns="http://www.w3.org/2000/svg">
<path d="M259.002 17.1204V145.876C259.003 148.125 258.56 150.351 257.698 152.429C256.836 154.506 255.573 156.394 253.98 157.984C252.387 159.574 250.495 160.835 248.414 161.695C246.332 162.555 244.101 162.997 241.848 162.996H17.1555C13.2659 163.001 9.49077 161.684 6.45083 159.262C3.41088 156.84 1.28713 153.458 0.428844 149.672C0.365312 149.334 0.307074 148.994 0.252366 148.652C0.143898 147.993 0.0743634 147.327 0.0441211 146.66C0.0441211 146.577 0.0335324 146.493 0.0300028 146.41C0.0300028 146.234 1.45417e-06 146.057 1.45417e-06 145.881V17.1204C-0.000926415 14.8717 0.442193 12.6449 1.30403 10.5672C2.16587 8.48955 3.42952 6.60176 5.02276 5.01178C6.61601 3.42179 8.5076 2.16078 10.5894 1.30083C12.6712 0.440875 14.9024 -0.00115514 17.1555 2.26701e-06H241.848C244.101 -0.000923634 246.332 0.441278 248.414 1.30133C250.495 2.16139 252.387 3.42243 253.98 5.0124C255.573 6.60236 256.836 8.49007 257.698 10.5676C258.56 12.6452 259.003 14.8719 259.002 17.1204Z" fill="#66ADFD"/>
</svg>
