<svg width="52" height="52" viewBox="0 0 52 52" fill="none" xmlns="http://www.w3.org/2000/svg">
<path d="M50.375 26C50.375 39.4875 39.4875 50.375 26 50.375C12.5125 50.375 1.625 39.4875 1.625 26C1.625 14.3 9.83125 4.55 20.8813 2.19375H21.5312L22.0188 1.95C22.425 1.86875 22.8313 1.86875 23.2375 1.7875H24.05L24.7 1.625H25.025L26 1.7875L26.65 1.625H26.975L28.275 1.95L29.8188 1.86875C29.9813 1.86875 30.225 1.95 30.3875 1.95L36.2375 5.6875L42.575 8.125C47.3688 12.5938 50.375 18.9312 50.375 26Z" fill="#008DB3"/>
<path d="M27.2187 9.34377C28.8437 9.83127 28.7625 8.85627 29.7375 9.99377C30.3062 10.6438 31.3625 11.8625 32.5812 12.1875C32.7437 12.2688 33.15 11.8625 33.15 11.5375C33.15 11.2125 32.2562 10.6438 31.7687 10.4813C31.2812 10.3188 31.9312 9.42502 31.2812 9.18127C30.6312 8.93752 29.9 7.88127 29.6562 7.06877C29.4125 6.25627 28.275 6.90627 27.8687 6.74377C27.4625 6.58127 26.975 6.66252 26.5687 7.31252C26.1625 7.96252 26.8125 9.18127 27.2187 9.34377Z" fill="#FFC942"/>
<path d="M35.75 32.2563C35.75 31.9313 32.5812 30.225 32.2562 30.1438C31.6062 30.1438 30.7937 29.8188 30.225 30.1438C29.9812 30.3063 29.7375 30.4688 29.6562 30.7125C29.575 30.875 28.925 30.55 28.6812 30.6313C28.1125 30.9563 27.7875 29.9813 27.95 29.575C28.3562 28.6813 26.975 29.25 26.8125 29.0063C26.975 29.3313 26.7312 26.4063 26.2437 28.0313C25.8375 29.25 24.4562 27.8688 24.6187 26.975C24.8625 25.5938 26.975 25.35 27.4625 25.5938C27.7062 25.7563 28.5187 26.975 28.6812 26.8938C28.925 26.8125 28.5187 25.4313 28.5187 25.2688C28.3562 24.6188 29.6562 24.375 29.7375 23.6438C29.8187 23.075 30.225 23.2375 30.6312 22.9125C31.2 22.425 30.7937 21.6125 31.525 21.125C31.7687 20.9625 32.7437 20.8813 32.825 20.5563C32.9062 20.3125 32.0125 19.6625 32.825 19.4188C33.5562 19.2563 34.2875 19.5813 34.45 18.525C34.6125 17.6313 33.5562 17.3875 33.3125 16.6563C33.2312 16.4125 33.0687 15.1938 32.6625 15.4375C32.0937 15.7625 31.7687 16.4125 31.3625 15.6C30.55 14.1375 28.6 13.4875 29.4937 15.8438C29.9812 17.0625 28.1937 20.7188 27.95 17.3063C27.8687 16.1688 24.375 15.7625 25.5125 14.4625C26.7312 13.1625 28.3562 13.0813 28.7625 11.05C29.4125 8.20627 27.4625 10.6438 26.4062 10.075C24.9437 9.26252 26.1625 9.66877 25.4312 10.725C25.1062 11.1313 24.2125 10.4813 23.725 10.5625C23.3187 10.6438 22.3437 11.4563 22.0187 10.9688C21.5312 9.99377 18.0375 9.34377 17.0625 9.75002C15.1125 10.4813 14.3812 9.50627 12.4312 9.10002C11.7812 8.93752 8.36873 8.85627 8.61248 9.99377C8.69373 10.4813 9.01873 10.8063 9.18123 11.2125C9.42498 11.8625 8.44998 11.375 8.20623 11.5375C8.12498 11.6188 9.34373 12.4313 9.42498 12.5125C9.74998 12.8375 8.20623 13.2438 8.04373 13.8125C7.71873 14.95 10.1562 14.625 9.74998 15.925C9.58748 16.3313 8.20623 16.9813 8.04373 18.3625C8.04373 18.6063 9.74998 16.6563 10.8875 17.0625C11.8625 17.3875 11.7812 14.7063 13.0812 14.7063C15.4375 14.7063 15.8437 16.9813 17.0625 18.525C17.6312 19.2563 18.1187 19.5 18.2 20.475C18.2812 21.3688 18.1187 22.425 18.4437 23.2375C18.7687 24.05 19.3375 24.05 19.7437 24.7C20.2312 25.4313 20.475 26.1625 21.125 26.8125C22.1 27.7875 23.6437 29.1688 25.1062 29.0063C25.4312 28.925 26.4875 29.575 26.7312 29.7375C27.1375 30.0625 27.3 30.4688 27.625 30.875C27.8687 31.2 28.6812 31.0375 29.0875 31.2C29.4125 31.3625 28.275 33.8 28.6812 34.45C29.1687 35.1813 29.1687 35.9125 29.9 36.4813C30.55 36.9688 30.7937 37.05 30.875 37.9438C31.0375 39.4063 30.55 40.95 30.225 42.3313C30.0625 43.0625 30.3875 43.875 30.1437 44.525C29.8187 45.3375 29.575 46.0688 29.9 47.0438C30.3875 48.6688 33.3937 48.9125 31.6062 47.5313C30.875 46.9625 32.4187 45.4188 31.9312 45.3375C31.1187 45.0125 32.0937 44.6875 32.175 44.2813C32.4187 43.55 35.6687 40.625 35.9125 40.1375C36.1562 39.7313 35.9937 39.325 36.3187 38.9188C36.725 38.5125 37.2125 38.675 37.6187 38.35C38.5125 37.7813 38.1875 36.8063 38.5125 35.9938C39.2437 34.3688 39.4875 35.0188 38.5125 33.8C38.1875 33.3938 35.8312 33.5563 35.75 32.2563Z" fill="#FFC942"/>
<path d="M18.2 8.20625C18.7688 8.85625 19.4188 7.88125 19.5 8.20625C19.5813 8.53125 19.5813 9.18125 20.3125 9.18125C21.0438 9.18125 19.6625 9.66875 20.0688 9.9125C20.5563 10.075 21.5313 10.725 21.8563 10.4812C22.1813 10.2375 22.6688 9.99375 22.8313 10.2375C22.9938 10.4 23.9688 10.2375 23.725 9.9125C23.4813 9.5875 22.6688 8.775 22.75 8.36875C22.75 7.88125 23.6438 6.74375 22.6688 6.90625C22.1 6.825 21.9375 7.39375 21.9375 7.71875C21.9375 8.04375 21.0438 7.23125 20.8813 7.23125C20.7188 7.23125 20.0688 6.25625 19.825 6.25625C19.5813 6.25625 18.0375 5.76875 18.2 6.25625C18.3625 6.74375 17.6313 7.55625 18.2 8.20625Z" fill="#FFC942"/>
<path d="M32.0125 12.9188C31.525 12.675 30.6312 11.4563 30.3062 11.8625C29.9 12.2688 30.3875 13.1625 30.7125 13.5688C31.0375 13.975 32.4187 14.7875 32.2562 14.4625C32.0937 14.1375 32.9062 13.4063 32.0125 12.9188Z" fill="#FFC942"/>
<path d="M19.0937 4.55002C19.3375 4.55002 19.7437 5.36252 20.0687 5.44377C20.3937 5.52502 20.5562 5.93127 20.7187 6.01252C20.8812 6.09377 22.3437 5.52502 22.6687 5.44377C23.075 5.28127 22.2625 4.46877 21.9375 3.90002C21.6937 3.33127 21.9375 4.87502 21.45 4.63127C20.9625 4.38752 21.125 4.06252 20.6375 4.06252C20.15 4.06252 20.475 3.00627 19.825 3.25002C19.175 3.49377 18.85 4.55002 19.0937 4.55002Z" fill="#FFC942"/>
<path d="M24.375 6.50001C23.9687 6.58126 24.05 6.90626 23.8062 7.15001C23.5625 7.39376 23.5625 7.71876 23.8062 8.04376C24.05 8.36876 24.375 8.85626 24.6187 8.36876C24.8625 7.88126 24.6187 7.47501 24.6187 7.15001C24.6187 6.82501 24.6187 6.41876 24.375 6.50001Z" fill="#FFC942"/>
<path d="M25.2687 8.04375C25.35 8.2875 25.5937 7.55625 26 7.23125C26.4062 6.825 25.7562 5.93125 25.4312 6.41875C25.1062 6.6625 25.1875 7.8 25.2687 8.04375Z" fill="#FFC942"/>
<path d="M25.1875 8.36875C24.9438 8.69375 24.7813 9.50626 25.1875 9.58751C25.5938 9.66876 25.8375 9.18125 25.675 8.85625C25.5125 8.53125 25.2688 8.20625 25.1875 8.36875Z" fill="#FFC942"/>
<path d="M26.8125 2.84376C26.4062 3.00626 27.3812 3.33126 26.7312 3.49376C26.0812 3.65626 26.0812 4.22501 25.5125 3.73751C24.9437 3.25001 24.2937 3.90001 24.7812 4.14376C25.2687 4.38751 25.9187 5.11876 25.9187 5.44376C25.9187 5.85001 26.5687 6.01251 27.2187 5.93126C27.8687 5.85001 28.6812 6.09376 28.6812 5.76876C28.6812 5.44376 28.7625 5.36251 28.6812 5.11876C28.6 4.79376 28.275 4.46876 27.625 4.79376C26.975 5.03751 26.4875 4.95626 26.4062 4.63126C26.325 4.30626 27.7062 3.65626 28.3562 4.14376C29.0062 4.55001 29.575 3.90001 29.0875 3.57501C28.6 3.25001 28.925 2.92501 29.25 2.92501C29.4937 2.92501 29.6562 2.27501 29.8187 1.86876C28.8437 1.70626 27.8687 1.62501 26.8937 1.54376C26.975 2.27501 27.2187 2.68126 26.8125 2.84376Z" fill="#FFC942"/>
<path d="M21.0437 2.27501C21.45 2.43751 22.1812 2.27501 22.1 1.95001L20.8812 2.19376C20.8812 2.19376 20.9625 2.27501 21.0437 2.27501Z" fill="#FFC942"/>
<path d="M21.2875 2.6C20.6375 2.275 20.7187 3.0875 20.9625 3.33125C21.2062 3.575 22.1 3.00625 21.2875 2.6Z" fill="#FFC942"/>
<path d="M25.025 1.625C25.5125 1.70625 25.7562 2.03125 25.8375 2.35625C26 2.6 26.65 2.03125 26.65 1.625H25.025Z" fill="#FFC942"/>
<path d="M23.725 2.51877C23.4812 2.92502 23.725 3.33127 24.05 3.00627C24.375 2.60002 24.1312 1.62502 24.375 2.11252C24.6187 2.51877 25.1062 3.16877 25.4312 3.25002C25.7562 3.25002 25.5125 2.84377 25.4312 2.51877C25.4312 2.19377 24.6187 1.86877 24.7 1.70627C24.2125 1.70627 23.725 1.78752 23.2375 1.78752C23.5625 2.03127 23.9687 2.27502 23.725 2.51877Z" fill="#FFC942"/>
<path d="M25.1875 5.85001C25.5937 6.01251 25.1875 5.03751 25.1875 5.03751C24.7813 5.28126 24.7813 5.68751 25.1875 5.85001Z" fill="#FFC942"/>
<path d="M23.8063 5.20002C23.8875 5.44377 24.2938 5.52502 24.5375 5.20002C24.7813 4.87502 24.5375 3.57502 24.2125 3.98127C23.8875 4.38752 23.5625 4.22502 22.9125 3.98127C22.2625 3.73752 23.725 4.95627 23.8063 5.20002Z" fill="#FFC942"/>
<path d="M28.1125 27.625C28.6812 27.5438 29.0062 28.1938 29.575 28.1938C30.1437 28.1938 31.1187 29.0875 31.6062 28.5188C32.0125 28.1125 29.7375 27.7063 29.0062 27.3C28.1937 26.8938 27.5437 27.7063 28.1125 27.625Z" fill="#FFC942"/>
<path d="M30.7938 2.925C31.525 3.25 31.4438 3.25 30.9563 3.65625C30.4688 4.0625 30.6313 4.79375 31.6875 4.7125C32.7438 4.63125 33.3125 3.65625 33.8 5.0375C34.2875 6.5 33.9625 8.04375 34.5313 8.45C35.1 8.85625 34.6125 9.18125 34.5313 9.5875C34.45 9.99375 34.6938 10.3188 35.1813 10.1562C35.6688 9.99375 35.5063 10.8875 35.1813 11.2125C34.8563 11.5375 34.45 12.2688 35.5063 13.4875C36.5625 14.7063 36.6438 14.5437 36.9688 15.0312C37.2938 15.4375 37.5375 14.8688 37.6188 14.3813C37.7 13.8938 37.2938 12.1875 38.5125 12.1875C39.65 12.1875 39.975 11.2937 40.1375 10.9688C40.3 10.6438 41.1938 10.725 41.6813 10.3187C42.0875 9.9125 42.575 9.5875 42.6563 8.125C39.325 5.0375 35.1813 2.925 30.55 2.03125C30.3875 2.35625 30.3875 2.7625 30.7938 2.925Z" fill="#FFC942"/>
</svg>
