<svg width="15" height="10" viewBox="0 0 15 10" fill="none" xmlns="http://www.w3.org/2000/svg">
<path d="M14.0875 0.0791664L8.02084 6.12083C7.8647 6.27604 7.65349 6.36316 7.43334 6.36316C7.21318 6.36316 7.00197 6.27604 6.84584 6.12083L0.833335 0.125C0.814852 0.192933 0.805051 0.262935 0.804169 0.333333V8.66667C0.804169 8.88768 0.891966 9.09964 1.04825 9.25592C1.20453 9.4122 1.41649 9.5 1.6375 9.5H13.3042C13.5252 9.5 13.7371 9.4122 13.8934 9.25592C14.0497 9.09964 14.1375 8.88768 14.1375 8.66667V0.333333C14.1342 0.246523 14.1173 0.160765 14.0875 0.0791664ZM2.20834 8.66667H1.62917V8.07083L4.65834 5.06667L5.24584 5.65417L2.20834 8.66667ZM13.2958 8.66667H12.7125L9.675 5.65417L10.2625 5.06667L13.2917 8.07083L13.2958 8.66667Z" fill="#919599"/>
</svg>
