<svg width="13" height="13" viewBox="0 0 13 13" fill="none" xmlns="http://www.w3.org/2000/svg">
<path d="M8.52967 9.06875L9.57967 8.01875C9.7211 7.87908 9.90003 7.78348 10.0947 7.74354C10.2894 7.70359 10.4916 7.72104 10.6765 7.79375L11.9562 8.30469C12.1432 8.38057 12.3035 8.51009 12.4169 8.67692C12.5304 8.84376 12.5919 9.04044 12.5937 9.24219V11.5859C12.5926 11.7232 12.5638 11.8588 12.5089 11.9846C12.4541 12.1104 12.3743 12.2238 12.2744 12.3179C12.1746 12.4121 12.0567 12.4851 11.9279 12.5325C11.7991 12.5799 11.6621 12.6007 11.525 12.5938C2.5578 12.0359 0.748424 4.44219 0.406236 1.53594C0.390352 1.39322 0.404865 1.24876 0.448822 1.11205C0.492778 0.975346 0.565181 0.849497 0.661268 0.742783C0.757355 0.636069 0.874948 0.550909 1.00631 0.492905C1.13767 0.434901 1.27983 0.405369 1.42342 0.40625H3.68749C3.88952 0.406848 4.08676 0.467875 4.25383 0.581483C4.4209 0.69509 4.55016 0.856081 4.62499 1.04375L5.13592 2.32344C5.21104 2.50769 5.23021 2.70999 5.19103 2.90507C5.15184 3.10015 5.05605 3.27936 4.91561 3.42031L3.86561 4.47031C3.86561 4.47031 4.4703 8.5625 8.52967 9.06875Z" fill="#919599"/>
</svg>
