<svg width="19" height="19" viewBox="0 0 19 19" fill="none" xmlns="http://www.w3.org/2000/svg">
<path d="M8.11025 16C9.89198 15.9996 11.6224 15.4054 13.0259 14.312L17.4386 18.708L18.858 17.294L14.4453 12.898C15.5434 11.4997 16.1402 9.77544 16.1407 8C16.1407 3.589 12.538 0 8.11025 0C3.68248 0 0.079834 3.589 0.079834 8C0.079834 12.411 3.68248 16 8.11025 16ZM8.11025 2C11.4318 2 14.1331 4.691 14.1331 8C14.1331 11.309 11.4318 14 8.11025 14C4.78867 14 2.08744 11.309 2.08744 8C2.08744 4.691 4.78867 2 8.11025 2Z" fill="#919599"/>
</svg>
