<svg width="25" height="25" viewBox="0 0 25 25" fill="none" xmlns="http://www.w3.org/2000/svg">
<path d="M0 6.25C0 5.4212 0.32924 4.62634 0.915291 4.04029C1.50134 3.45424 2.2962 3.125 3.125 3.125H21.875C22.7038 3.125 23.4987 3.45424 24.0847 4.04029C24.6708 4.62634 25 5.4212 25 6.25V7.8125H0V6.25Z" fill="#072C59"/>
<path fill-rule="evenodd" clip-rule="evenodd" d="M0 10.9375V18.75C0 19.5788 0.32924 20.3737 0.915291 20.9597C1.50134 21.5458 2.2962 21.875 3.125 21.875H21.875C22.7038 21.875 23.4987 21.5458 24.0847 20.9597C24.6708 20.3737 25 19.5788 25 18.75V10.9375H0ZM4.6875 14.0625C4.2731 14.0625 3.87567 14.2271 3.58265 14.5201C3.28962 14.8132 3.125 15.2106 3.125 15.625V17.1875C3.125 17.6019 3.28962 17.9993 3.58265 18.2924C3.87567 18.5854 4.2731 18.75 4.6875 18.75H6.25C6.6644 18.75 7.06183 18.5854 7.35485 18.2924C7.64788 17.9993 7.8125 17.6019 7.8125 17.1875V15.625C7.8125 15.2106 7.64788 14.8132 7.35485 14.5201C7.06183 14.2271 6.6644 14.0625 6.25 14.0625H4.6875Z" fill="#072C59"/>
</svg>
